<?xml version="1.0" encoding="UTF-8"?>
<svg width="62px" height="62px" viewBox="0 0 62 62" version="1.1" xmlns="http://www.w3.org/2000/svg" xmlns:xlink="http://www.w3.org/1999/xlink">
    <!-- Generator: Sketch 52.3 (67297) - http://www.bohemiancoding.com/sketch -->
    <title>Group 6</title>
    <desc>Created with Sketch.</desc>
    <g id="Symbols" stroke="none" stroke-width="1" fill="none" fill-rule="evenodd">
        <g id="Select-and-Back" transform="translate(-354.000000, -18.000000)">
            <g id="Group">
                <g id="Group-6" transform="translate(357.000000, 21.000000)">
                    <circle id="Oval-Copy-5" stroke="#B0362D" stroke-width="5" cx="28" cy="28" r="28"></circle>
                    <path d="M21,18 L28.8248031,18 C32.9586614,18 35.3503937,20.3991537 35.3503937,23.6276446 C35.3503937,25.7898449 33.992126,27.5669958 32.2795276,28.1297602 C34.1692913,28.574048 36,30.3215797 36,33.0465444 C36,36.4823695 33.4015748,39 29.4448819,39 L21,39 L21,18 Z M25.5472441,26.4118477 L28.0866142,26.4118477 C29.7106299,26.4118477 30.773622,25.5528914 30.773622,24.1311707 C30.773622,22.7686883 29.8582677,21.8801128 28.0275591,21.8801128 L25.5472441,21.8801128 L25.5472441,26.4118477 Z M25.5472441,35.1791255 L28.4704724,35.1791255 C30.2716535,35.1791255 31.3641732,34.2313117 31.3641732,32.7207334 C31.3641732,31.2693935 30.3011811,30.2623413 28.4704724,30.2623413 L25.5472441,30.2623413 L25.5472441,35.1791255 Z" id="B" fill="#B0362D"></path>
                </g>
            </g>
        </g>
    </g>
</svg>